<svg width="312" height="243" viewBox="0 0 312 243" fill="none" xmlns="http://www.w3.org/2000/svg">
<circle cx="141.299" cy="65.5916" r="65.5916" fill="#7ED8FF"/>
<path d="M69.5303 54.3962C104.195 57.9093 136.284 71.2589 160.175 74.772C197.182 74.772 150.571 42.4518 226.928 60.4855C303.285 78.5193 281.971 108.263 281.971 139.178C325.068 153.465 314.059 197.729 296.258 197.729C278.457 197.729 240.045 209.439 238.874 232.157C237.702 254.875 160.175 235.905 123.167 223.96C86.1602 212.016 39.784 219.042 29.0097 197.729C18.2355 176.417 54.0716 180.867 58.7561 164.238C63.4405 147.61 26.6675 143.862 5.119 116.46C-16.4295 89.0584 34.8653 50.8831 69.5303 54.3962Z" fill="#E7F6FF"/>
<g clip-path="url(#clip0)">
<path opacity="0.1" d="M212.877 69.5406C213.055 69.2858 213.153 68.9834 213.159 68.6721C213.159 66.7863 209.331 65.2603 204.608 65.2603C199.885 65.2603 196.057 66.7863 196.057 68.6721C196.065 69.0247 196.189 69.3648 196.409 69.6399C191.15 70.2292 187.608 71.3334 187.608 72.6009C187.608 74.4847 195.438 76.0128 205.123 76.0128C214.807 76.0128 222.638 74.4847 222.638 72.6009C222.627 71.2672 218.646 70.0989 212.877 69.5406Z" fill="white"/>
<g opacity="0.2">
<path opacity="0.2" d="M236.892 168.427C236.818 168.965 236.789 169.509 236.804 170.052C240.394 170.11 244.001 170.231 247.623 170.416C247.648 170.275 247.673 170.129 247.693 169.982C247.926 168.466 247.751 166.916 247.189 165.491C246.443 163.665 245.052 162.36 243.311 162.11C241.57 161.86 239.872 162.718 238.646 164.25C237.7 165.46 237.095 166.902 236.892 168.427Z" fill="#3F3D56"/>
<path opacity="0.2" d="M248.946 161.319C249.507 157.402 247.544 153.877 244.562 153.446C241.579 153.016 238.706 155.843 238.145 159.761C237.583 163.679 239.546 167.204 242.529 167.634C245.512 168.065 248.385 165.237 248.946 161.319Z" fill="#3F3D56"/>
<path opacity="0.2" d="M250.187 152.65C250.748 148.732 248.785 145.208 245.803 144.777C242.82 144.347 239.947 147.174 239.386 151.092C238.824 155.01 240.788 158.535 243.77 158.965C246.753 159.396 249.626 156.568 250.187 152.65Z" fill="#3F3D56"/>
<path opacity="0.2" d="M251.429 143.979C251.99 140.061 250.027 136.536 247.044 136.106C244.061 135.676 241.188 138.503 240.627 142.421C240.066 146.339 242.029 149.864 245.012 150.294C247.994 150.724 250.867 147.897 251.429 143.979Z" fill="#3F3D56"/>
<path opacity="0.2" d="M252.67 135.308C253.231 131.39 251.268 127.865 248.285 127.435C245.303 127.004 242.43 129.832 241.868 133.75C241.307 137.668 243.27 141.193 246.253 141.623C249.236 142.053 252.109 139.226 252.67 135.308Z" fill="#3F3D56"/>
<path opacity="0.2" d="M275.975 78.1054C276.847 77.2662 277.662 76.368 278.412 75.4173L264.557 71.0397L279.888 73.3681C281.821 70.3649 283.123 66.9974 283.714 63.4718C284.305 59.9462 284.173 56.3365 283.327 52.8638L261.205 60.6118L282.195 49.3485C280.858 46.008 278.849 42.9797 276.294 40.4522C273.739 37.9247 270.693 35.9521 267.346 34.6573C263.998 33.3624 260.421 32.7731 256.837 32.926C253.252 33.079 249.738 33.9708 246.512 35.546C243.286 37.1213 240.418 39.3462 238.086 42.0822C235.754 44.8181 234.009 48.0066 232.958 51.449C231.908 54.8914 231.575 58.5139 231.98 62.0911C232.385 65.6682 233.52 69.1233 235.314 72.2411C233.954 73.5427 232.739 74.9875 231.687 76.5504L248.732 88.8084L230.041 79.3626C228.076 83.254 227.109 87.5757 227.228 91.9365C227.347 96.2973 228.547 100.56 230.721 104.338C227.172 107.733 224.646 112.063 223.433 116.832C222.22 121.6 222.369 126.615 223.862 131.302C225.355 135.99 228.133 140.161 231.877 143.34C235.622 146.518 240.181 148.575 245.036 149.275C249.89 149.975 254.842 149.29 259.327 147.299C263.812 145.307 267.647 142.09 270.396 138.014C273.144 133.938 274.694 129.168 274.868 124.25C275.043 119.332 273.834 114.463 271.382 110.202C275.622 106.143 278.381 100.772 279.214 94.9516C280.047 89.1308 278.907 83.1978 275.977 78.1054H275.975Z" fill="white"/>
<path opacity="0.1" d="M227.48 87.4911C226.636 93.3122 227.777 99.2485 230.717 104.337C227.167 107.733 224.642 112.063 223.429 116.832C222.216 121.6 222.365 126.615 223.858 131.302C225.351 135.99 228.129 140.161 231.873 143.34C235.617 146.518 240.177 148.574 245.031 149.275C249.886 149.975 254.838 149.29 259.323 147.299C263.807 145.307 267.643 142.09 270.391 138.014C273.14 133.938 274.69 129.168 274.864 124.25C275.038 119.332 273.83 114.463 271.377 110.202C275.476 106.285 227.896 84.5776 227.48 87.4911Z" fill="black"/>
</g>
<g opacity="0.2">
<path opacity="0.2" d="M83.6667 160.762C83.748 161.229 83.8687 161.688 84.0273 162.135C86.9546 161.189 89.9122 160.293 92.8999 159.446C92.8835 159.322 92.8649 159.194 92.8422 159.066C92.6306 157.749 92.0778 156.511 91.2391 155.476C90.1491 154.167 88.6738 153.468 87.1943 153.743C85.7148 154.018 84.5651 155.191 83.9778 156.812C83.5333 158.079 83.426 159.44 83.6667 160.762Z" fill="#3F3D56"/>
<path opacity="0.2" d="M87.9438 158.553C90.4886 158.149 92.1149 155.052 91.5763 151.635C91.0377 148.219 88.538 145.776 85.9932 146.18C83.4485 146.584 81.8221 149.682 82.3608 153.098C82.8994 156.515 85.399 158.957 87.9438 158.553Z" fill="#3F3D56"/>
<path opacity="0.2" d="M87.2723 151.176C89.8229 150.762 91.4436 147.65 90.8921 144.226C90.3405 140.801 87.8257 138.361 85.275 138.774C82.7243 139.188 81.1037 142.299 81.6552 145.724C82.2068 149.149 84.7216 151.589 87.2723 151.176Z" fill="#3F3D56"/>
<path opacity="0.2" d="M85.3467 143.47C87.8914 143.066 89.5178 139.968 88.9791 136.552C88.4405 133.135 85.9409 130.693 83.3961 131.097C80.8513 131.501 79.225 134.598 79.7636 138.015C80.3023 141.431 82.8019 143.874 85.3467 143.47Z" fill="#3F3D56"/>
<path opacity="0.2" d="M84.0503 135.926C86.5951 135.522 88.2214 132.425 87.6827 129.009C87.1441 125.592 84.6445 123.15 82.0997 123.554C79.5549 123.958 77.9286 127.055 78.4672 130.472C79.0059 133.888 81.5055 136.331 84.0503 135.926Z" fill="#3F3D56"/>
<path opacity="0.2" d="M91.3648 74.9603C91.8504 74.025 92.2724 73.0578 92.6279 72.0654L80.2234 72.2597L93.279 69.95C94.0981 66.743 94.2301 63.3982 93.6664 60.1362C93.1746 57.2495 92.1411 54.4828 90.6209 51.9829L74.7321 64.5365L88.7685 49.3734C83.8067 43.3374 75.9314 40.1179 67.8046 41.6191C55.6577 43.8565 47.566 55.7835 49.711 68.2524C50.5577 73.2893 53.0585 77.8974 56.8158 81.3436C56.0561 82.802 55.4531 84.3374 55.0169 85.9238L72.1029 91.3848L54.4214 88.7153C54.0531 91.1895 54.0823 93.7069 54.508 96.1718C55.3546 101.209 57.8555 105.817 61.6127 109.263C59.2408 113.817 58.4318 119.029 59.3111 124.091C61.4561 136.562 73.0342 144.852 85.1729 142.608C97.3115 140.365 105.411 128.44 103.266 115.969C102.419 110.933 99.9181 106.326 96.1617 102.88C98.5332 98.3248 99.3421 93.1124 98.4633 88.0495C97.6174 83.0142 95.1189 78.4072 91.3648 74.9603Z" fill="white"/>
<path opacity="0.1" d="M54.5141 96.1718C55.3607 101.209 57.8616 105.817 61.6188 109.263C59.2469 113.817 58.4379 119.029 59.3172 124.091C61.4622 136.562 73.0404 144.852 85.179 142.608C97.3176 140.365 105.418 128.44 103.273 115.969C102.425 110.933 99.9242 106.326 96.1678 102.88C98.4529 98.4919 54.0772 93.6387 54.5141 96.1718Z" fill="black"/>
</g>
<path d="M72.8262 143.526C72.8262 154.343 79.5868 163.094 87.9423 163.094L72.8262 143.526Z" fill="#46455B"/>
<path d="M87.9423 163.094C87.9423 152.157 95.4879 143.307 104.814 143.307L87.9423 163.094Z" fill="white"/>
<path d="M78.3031 144.507C78.3031 154.781 82.6137 163.094 87.9423 163.094L78.3031 144.507Z" fill="white"/>
<path d="M87.9423 163.094C87.9423 149.12 96.6645 137.811 107.443 137.811L87.9423 163.094Z" fill="#46455B"/>
<path opacity="0.1" d="M158.132 174.781C216.284 174.781 263.426 173.208 263.426 171.268C263.426 169.328 216.284 167.755 158.132 167.755C99.9805 167.755 52.839 169.328 52.839 171.268C52.839 173.208 99.9805 174.781 158.132 174.781Z" fill="white"/>
<path opacity="0.1" d="M86.197 165.871C88.3228 165.871 90.0461 165.579 90.0461 165.218C90.0461 164.857 88.3228 164.564 86.197 164.564C84.0712 164.564 82.3479 164.857 82.3479 165.218C82.3479 165.579 84.0712 165.871 86.197 165.871Z" fill="white"/>
<path d="M83.611 162.182C83.611 162.182 85.8075 162.116 86.4689 161.642C87.1304 161.169 89.8441 160.609 90.0089 161.363C90.1738 162.118 93.3058 165.135 90.8331 165.154C88.3605 165.172 85.076 164.767 84.4146 164.364C83.7531 163.96 83.611 162.182 83.611 162.182Z" fill="#A8A8A8"/>
<path opacity="0.2" d="M90.8744 164.891C88.4017 164.91 85.1152 164.502 84.4558 164.099C83.953 163.793 83.7511 162.689 83.6851 162.18H83.611C83.611 162.18 83.7511 163.958 84.4104 164.362C85.0698 164.765 88.3523 165.172 90.829 165.151C91.544 165.151 91.7913 164.891 91.7789 164.513C91.68 164.744 91.406 164.887 90.8744 164.891Z" fill="black"/>
<path d="M191.035 61.9621C188.078 47.3386 175.406 36.3214 159.989 36.3214C147.739 36.3214 137.179 43.3147 131.898 53.4842C119.225 54.7558 109.3 65.5642 109.3 78.7113C109.3 92.6979 120.703 104.145 134.644 104.145H189.558C201.173 104.145 210.678 94.6065 210.678 82.9503C210.7 77.5944 208.676 72.4336 205.023 68.5296C201.369 64.6256 196.363 62.2752 191.035 61.9621ZM166.745 74.462V90.5701H153.228V74.462H138.866L159.987 53.2774L181.107 74.4723L166.745 74.462Z" fill="white"/>
<path d="M139.332 72.0426C139.126 70.8619 139.227 69.5902 138.687 68.5274C138.635 68.4019 138.55 68.2927 138.442 68.211C138.307 68.1381 138.156 68.1031 138.003 68.1097C137.515 68.0911 137.028 68.0849 136.54 68.0973C136.404 68.0973 136.243 68.118 136.173 68.2379C136.165 68.2506 136.159 68.2646 136.155 68.2792C135.596 67.6589 135.174 66.8752 134.572 66.2962C134.659 66.2673 134.743 66.2404 134.832 66.2176C134.832 66.1577 134.811 66.1018 134.799 66.0439C134.799 66.0253 134.789 66.0088 134.784 65.9922C134.78 65.9757 134.766 65.9137 134.753 65.8744C134.741 65.8351 134.741 65.8351 134.733 65.8165C134.722 65.7794 134.71 65.7428 134.696 65.7069C134.696 65.6883 134.681 65.6697 134.673 65.6511L134.63 65.5415L134.605 65.4898C134.589 65.4526 134.572 65.4153 134.554 65.3802L134.529 65.3347C134.51 65.2954 134.49 65.2561 134.469 65.2168L134.449 65.1796C134.426 65.1382 134.401 65.0969 134.378 65.0535C134.372 65.0467 134.368 65.039 134.364 65.0307C134.337 64.9832 134.308 64.9356 134.28 64.8901C134.045 64.5055 133.785 64.1271 133.593 63.7321C133.258 63.0374 133.146 62.2537 132.922 61.5134C132.697 60.7731 132.304 60.0204 131.636 59.6669C131.312 59.5014 130.88 59.3546 130.849 58.9886C130.848 58.871 130.872 58.7545 130.921 58.6474C131.014 58.4103 131.126 58.1813 131.257 57.963C131.306 57.8844 131.358 57.8058 131.409 57.7273L131.45 57.6714C131.492 57.6135 131.535 57.5556 131.578 57.5019L131.632 57.4336C131.675 57.3799 131.72 57.3302 131.766 57.2785L131.821 57.2186C131.885 57.1503 131.949 57.0842 132.017 57.0118C132.08 56.9634 132.129 56.9002 132.161 56.8278C132.179 56.7561 132.183 56.6816 132.172 56.6086C132.139 56.0172 132.448 55.4651 132.79 54.9895C133.132 54.5139 133.536 54.0631 133.731 53.5069C133.754 53.4428 133.773 53.3787 133.789 53.3125C133.795 53.2914 133.8 53.27 133.804 53.2484C133.814 53.205 133.822 53.1616 133.83 53.1161L133.843 53.0416C133.843 53.0003 133.853 52.9589 133.857 52.9196V52.839V52.717V52.6363C133.857 52.597 133.857 52.5557 133.857 52.5143C133.857 52.473 133.857 52.4626 133.857 52.4358C133.857 52.4089 133.857 52.3489 133.847 52.3055V52.2352C133.847 52.1856 133.832 52.1339 133.826 52.0842C133.826 52.0677 133.826 52.0511 133.826 52.0346C133.817 51.9671 133.804 51.8981 133.789 51.8278C133.691 51.3885 133.564 50.9561 133.41 50.5334C133.328 50.2737 133.223 50.0219 133.097 49.7807C133.173 49.7662 133.251 49.7497 133.328 49.729C133.267 49.634 133.211 49.536 133.161 49.4354C133.635 48.7343 133.991 47.9595 134.214 47.1422C134.332 46.5583 134.401 45.9655 134.42 45.3701C134.533 43.5794 134.648 41.7804 134.5 39.9938V39.9235C134.556 39.5398 134.56 39.1504 134.512 38.7655C134.465 38.0128 134.243 37.2815 133.865 36.6295C133.466 35.9968 132.806 35.4384 132.073 35.364C131.952 35.5007 131.818 35.6253 131.673 35.7362C131.452 35.5416 131.29 35.2887 131.205 35.0063C132.062 34.8714 132.85 34.458 133.45 33.8297C134.05 33.2013 134.427 32.3928 134.525 31.5282C134.525 31.4641 134.539 31.398 134.543 31.3339C134.543 31.307 134.543 31.2801 134.543 31.2532C134.543 31.2263 134.543 31.1767 134.543 31.1395C134.543 31.1023 134.543 31.0713 134.543 31.0361V30.9513C134.543 30.912 134.543 30.8707 134.543 30.8314C134.543 30.7921 134.543 30.788 134.543 30.7673C134.543 30.7466 134.543 30.6763 134.531 30.6329C134.532 30.617 134.532 30.6012 134.531 30.5853L134.512 30.4406V30.4096C134.512 30.3579 134.496 30.3062 134.486 30.2545V30.2379C134.475 30.1821 134.463 30.1283 134.449 30.0725C134.356 29.6961 134.21 29.3353 134.014 29.0014C134.175 28.6361 134.281 28.2485 134.327 27.8517C134.327 27.7793 134.341 27.709 134.345 27.6449C134.35 27.5808 134.345 27.5539 134.345 27.5084C134.345 27.4629 134.345 27.4629 134.345 27.4423C134.345 27.3823 134.345 27.3223 134.345 27.2644C134.344 27.2583 134.344 27.252 134.345 27.2458C134.316 26.2521 133.92 25.3047 133.235 24.5866C133.314 24.4556 133.379 24.3171 133.431 24.1731C133.447 24.1297 133.462 24.0862 133.474 24.0407C133.486 23.9973 133.499 23.956 133.509 23.9125V23.9022L133.534 23.7843C133.532 23.7775 133.532 23.7705 133.534 23.7637C133.534 23.7182 133.548 23.6706 133.554 23.623C133.56 23.5755 133.554 23.5259 133.567 23.4783C133.567 23.4638 133.567 23.4473 133.567 23.4328C133.567 23.4183 133.567 23.3646 133.567 23.3315V23.2819C133.567 23.2488 133.567 23.2136 133.567 23.1805C133.567 23.1474 133.567 23.1516 133.567 23.1371C133.532 22.5228 133.268 21.9442 132.827 21.5166C132.386 21.089 131.801 20.8439 131.188 20.8301C130.575 20.8162 129.979 21.0347 129.519 21.442C129.06 21.8493 128.77 22.4154 128.708 23.0275C128.678 23.2775 128.686 23.5305 128.731 23.7781C128.131 24.0713 127.615 24.5106 127.229 25.0557C126.843 25.6008 126.599 26.2343 126.52 26.8984C126.494 27.1207 126.486 27.3448 126.497 27.5684C126.141 28.1283 125.929 28.7675 125.879 29.4294C125.879 29.4542 125.879 29.479 125.879 29.5039C125.879 29.5866 125.868 29.6714 125.868 29.7541C125.867 30.3665 126.004 30.9713 126.271 31.5221C126.538 32.0729 126.927 32.5553 127.408 32.9323C127.609 33.2581 127.874 33.5395 128.187 33.7594C128.243 33.9278 128.285 34.1007 128.312 34.2763C128.335 34.5124 128.305 34.7506 128.222 34.9731C128.14 35.1955 128.009 35.3963 127.838 35.5604C127.75 35.6349 127.651 35.6969 127.558 35.7672C127.464 35.7404 127.365 35.7404 127.272 35.7672C126.208 36.1022 125.191 36.766 124.702 37.7813C124.594 38.0122 124.508 38.2532 124.447 38.5009L124.389 38.5898C123.743 39.604 123.279 40.7237 123.017 41.8983C122.883 42.5 122.798 43.1245 122.518 43.6724C122.451 43.7868 122.396 43.9081 122.355 44.0343C122.331 44.227 122.323 44.4213 122.331 44.6153C122.302 44.9669 122.098 45.2791 122.03 45.6244C121.988 45.8312 121.997 46.038 121.962 46.2448C121.863 46.6 121.735 46.946 121.576 47.2787C121.358 47.8866 121.36 48.5545 121.197 49.181C121.177 49.2842 121.134 49.3813 121.069 49.4643C120.941 49.5652 120.796 49.6435 120.641 49.6959C120.528 49.7671 120.431 49.8616 120.356 49.9732C120.282 50.0848 120.232 50.2108 120.21 50.3431C120.167 50.6099 120.162 50.8814 120.196 51.1496L120.276 52.198L119.106 52.5536L117.185 53.1429C116.623 53.2858 116.085 53.5138 115.59 53.8191C115.15 54.1271 114.802 54.5505 114.585 55.0433C114.39 55.557 114.265 56.0946 114.212 56.6417C114.026 58.1723 113.696 59.6817 113.225 61.1495C113.186 61.2611 113.145 61.3749 113.103 61.4865L112.974 61.8153C112.963 61.838 112.953 61.8608 112.945 61.8835L112.833 62.1461C112.784 62.2578 112.733 62.3674 112.679 62.477L117.177 63.9823C117.177 64.0361 117.187 64.094 117.196 64.1581C117.352 65.2665 117.276 66.3913 117.42 67.5017C117.439 67.6863 117.481 67.8677 117.546 68.0414C117.432 68.1407 117.349 68.2716 117.309 68.4178C117.258 68.6543 117.25 68.8981 117.286 69.1374C117.338 69.704 117.387 70.2705 117.439 70.8371C117.463 71.0432 117.463 71.2514 117.439 71.4574C117.383 71.8317 117.169 72.1605 117.051 72.5182C116.934 72.8759 116.94 73.335 117.235 73.5521C117.338 73.6227 117.457 73.6656 117.581 73.6768C117.705 73.688 117.83 73.6672 117.944 73.6162C118.171 73.5114 118.371 73.3567 118.531 73.1634C119.435 72.1543 119.841 70.7916 120.544 69.6274C120.725 69.359 120.886 69.0778 121.026 68.7858C121.123 68.5605 121.185 68.3206 121.263 68.0869C121.371 67.7758 121.501 67.4725 121.651 67.1792C121.735 67.0117 122.063 66.6085 121.988 66.4224C121.873 66.1018 120.639 65.8206 120.34 65.7214C120.149 65.636 119.934 65.6264 119.736 65.6945C119.707 65.7087 119.679 65.7268 119.654 65.7482L119.549 64.3814C119.732 64.3649 119.913 64.3421 120.093 64.3111C120.093 64.0547 120.087 63.7962 120.074 63.5357C120.074 63.3 120.064 63.0622 120.058 62.8244C120.045 62.2454 120.033 61.6664 120.019 61.0978C120.015 60.7626 119.993 60.4278 119.955 60.0949C119.885 59.5883 119.73 59.092 119.681 58.5813C119.755 58.5221 119.843 58.4823 119.936 58.4655C120.081 58.4422 120.227 58.4367 120.373 58.4489H120.488C121.128 58.4395 121.754 58.2658 122.308 57.9444C122.874 57.6487 123.4 57.2785 123.956 56.9746L124.162 56.865L124.241 56.8257L124.373 56.7595L124.482 56.7078L124.506 56.6954C124.834 56.5383 125.166 56.3853 125.483 56.2136C125.505 56.2487 125.528 56.2825 125.553 56.3149C125.63 56.42 125.736 56.4999 125.858 56.5444C125.981 56.589 126.113 56.5962 126.239 56.5652C125.85 57.506 125.392 58.4158 125.277 59.4332C125.108 60.9034 125.689 62.3281 126.268 63.697L128.1 68.0394C128.306 68.5191 128.572 69.0567 129.073 69.1705C129.391 69.2135 129.714 69.1487 129.992 68.9864C130.83 68.5853 131.584 68.0104 132.353 67.4728L132.384 67.4976C133.078 68.0476 133.513 68.8148 133.993 69.5489L135.277 71.6663C135.268 71.7724 135.286 71.879 135.328 71.9765C135.422 72.1518 135.544 72.3104 135.689 72.4459C136.505 73.3277 137.043 74.4321 137.234 75.6199C137.251 75.9241 137.339 76.2201 137.49 76.4843C137.834 76.964 138.568 76.933 139.085 76.66C139.244 76.5867 139.382 76.4726 139.484 76.3292C139.571 76.175 139.626 76.0048 139.645 75.8288C139.74 75.391 139.791 74.945 139.8 74.4971C139.791 73.6845 139.48 72.876 139.332 72.0426ZM131.961 33.0812C132.051 33.0218 132.138 32.9576 132.221 32.8889C132.047 33.4138 131.766 33.8968 131.397 34.3074C131.31 34.4025 131.218 34.4914 131.123 34.5782V34.5121C131.113 34.3053 131.123 34.0758 131.123 33.8566C131.453 33.6596 131.739 33.3955 131.961 33.0812ZM124.686 49.3982L124.698 49.3589C124.771 49.4117 124.834 49.4768 124.886 49.5512C124.836 49.6622 124.812 49.7834 124.817 49.9051C124.822 50.0268 124.856 50.1457 124.914 50.2522C125.022 50.4341 125.215 50.6037 125.174 50.8125C125.133 51.0214 124.869 51.1041 124.655 51.1392C124.372 51.1847 124.094 51.2364 123.816 51.2923C123.816 51.2923 123.816 51.2923 123.816 51.2778C123.822 51.0448 123.791 50.8123 123.723 50.5892C124.204 50.3824 124.5 49.8903 124.686 49.3982Z" fill="url(#paint0_linear)"/>
<path d="M133.262 25.3248C133.447 25.0107 133.56 24.6592 133.592 24.2958C133.625 23.9325 133.576 23.5664 133.45 23.2242C133.324 22.882 133.123 22.5724 132.863 22.3178C132.602 22.0633 132.289 21.8702 131.944 21.7526C131.6 21.635 131.234 21.5959 130.873 21.6381C130.512 21.6803 130.165 21.8028 129.857 21.9966C129.549 22.1904 129.288 22.4507 129.093 22.7585C128.897 23.0663 128.773 23.4139 128.729 23.7761C128.698 24.0232 128.705 24.2736 128.751 24.5184C128.051 24.8513 127.465 25.3853 127.067 26.0526C126.67 26.72 126.478 27.4908 126.518 28.2673C126.186 28.7822 125.979 29.3675 125.913 29.9768C125.846 30.586 125.922 31.2024 126.134 31.7772C126.346 32.352 126.689 32.8692 127.135 33.288C127.58 33.7067 128.118 34.0155 128.703 34.1897C129.289 34.3639 129.907 34.3988 130.508 34.2917C131.109 34.1846 131.677 33.9383 132.167 33.5724C132.657 33.2066 133.056 32.7312 133.331 32.184C133.606 31.6368 133.75 31.0328 133.752 30.4199C133.752 30.3558 133.752 30.2938 133.752 30.2317C134.239 29.4806 134.457 28.5856 134.369 27.6938C134.282 26.802 133.895 25.9666 133.272 25.3248H133.262Z" fill="#46455B"/>
<g opacity="0.1">
<path opacity="0.1" d="M128.722 23.896L128.755 23.8774C128.747 23.835 128.741 23.7922 128.737 23.7492C128.736 23.7581 128.736 23.7671 128.737 23.7761C128.73 23.8158 128.725 23.8558 128.722 23.896Z" fill="black"/>
<path opacity="0.1" d="M134.35 27.9117C134.278 28.5115 134.07 29.0868 133.742 29.5928C133.742 29.6548 133.742 29.7169 133.742 29.7789C133.737 30.7944 133.342 31.769 132.639 32.4998C131.937 33.2306 130.98 33.6613 129.969 33.7023C128.958 33.7434 127.97 33.3915 127.211 32.72C126.452 32.0486 125.98 31.1092 125.893 30.0973C125.893 30.2049 125.879 30.3041 125.879 30.4199C125.879 31.4663 126.293 32.4698 127.03 33.2097C127.768 33.9496 128.768 34.3653 129.81 34.3653C130.853 34.3653 131.853 33.9496 132.59 33.2097C133.328 32.4698 133.742 31.4663 133.742 30.4199C133.742 30.3558 133.742 30.2938 133.742 30.2317C134.071 29.7261 134.279 29.1506 134.35 28.5506C134.382 28.2865 134.387 28.0197 134.364 27.7545C134.37 27.8062 134.358 27.86 134.35 27.9117Z" fill="black"/>
<path opacity="0.1" d="M133.585 23.7471C133.542 24.0789 133.432 24.3983 133.262 24.6859C133.332 24.7562 133.396 24.8307 133.468 24.9051C133.53 24.7306 133.573 24.5496 133.595 24.3654C133.619 24.1597 133.615 23.9519 133.585 23.7471Z" fill="black"/>
</g>
<path d="M117.42 67.6527C117.439 67.8771 117.5 68.096 117.6 68.2978C117.65 68.3987 117.723 68.486 117.814 68.5526C117.905 68.6191 118.01 68.6629 118.121 68.6804C118.325 68.6817 118.524 68.6235 118.696 68.5129C119.044 68.3289 119.409 68.1159 119.59 67.7644C119.771 67.4128 119.742 67.0199 119.712 66.6374L119.477 63.6288C118.912 63.6122 118.343 63.6122 117.777 63.6432C117.21 63.6742 117.117 63.8066 117.196 64.3566C117.35 65.4484 117.268 66.5588 117.42 67.6527Z" fill="#FBBEBE"/>
<path d="M134.032 69.6853L135.378 71.8689C135.436 71.9963 135.542 72.0958 135.673 72.146C135.769 72.1606 135.867 72.1431 135.953 72.0964C136.388 71.8674 136.771 71.5489 137.076 71.1618C137.32 70.9339 137.505 70.6501 137.616 70.3346C137.659 70.1597 137.658 69.9764 137.611 69.8024C137.564 69.6283 137.473 69.4691 137.348 69.34C137.192 69.201 137.023 69.0777 136.843 68.972C135.778 68.2503 135.298 66.8814 134.247 66.1411C134.188 66.0915 134.117 66.0592 134.041 66.0481C133.963 66.0536 133.887 66.0792 133.822 66.1225L132.38 66.9124C131.762 67.2536 131.953 67.295 132.427 67.663C133.117 68.2048 133.546 68.9616 134.032 69.6853Z" fill="#FBBEBE"/>
<path d="M120.344 65.9116C120.153 65.8283 119.937 65.8209 119.74 65.8909C119.653 65.9441 119.579 66.0167 119.525 66.1031C119.47 66.1895 119.436 66.2875 119.425 66.3892C119.388 66.596 119.392 66.8028 119.337 66.9951C119.212 67.3155 119.011 67.5998 118.749 67.8222C118.651 67.9391 118.524 68.0282 118.381 68.0807C118.185 68.1303 117.979 68.0394 117.781 68.0807C117.666 68.1108 117.561 68.1718 117.478 68.257C117.395 68.3422 117.337 68.4486 117.309 68.5646C117.257 68.7975 117.249 69.0381 117.286 69.2738L117.439 70.9487C117.464 71.1548 117.464 71.3631 117.439 71.5691C117.383 71.9392 117.169 72.2618 117.051 72.6154C116.934 72.969 116.938 73.4198 117.235 73.6493C117.339 73.7186 117.458 73.7606 117.582 73.7714C117.707 73.7823 117.832 73.7616 117.946 73.7113C118.173 73.6088 118.373 73.4561 118.533 73.2647C119.44 72.2721 119.846 70.926 120.55 69.7804C120.73 69.5167 120.892 69.2402 121.032 68.9533C121.129 68.73 121.191 68.4943 121.269 68.2647C121.378 67.9574 121.508 67.6582 121.659 67.3694C121.741 67.204 122.071 66.8069 121.997 66.6229C121.888 66.2879 120.649 66.0088 120.344 65.9116Z" fill="#46455B"/>
<path d="M136.707 70.5372C136.503 70.9236 136.162 71.2189 135.751 71.3644C135.633 71.397 135.522 71.454 135.427 71.5319C135.365 71.6081 135.326 71.7011 135.316 71.7992C135.306 71.8974 135.324 71.9964 135.37 72.084C135.464 72.2575 135.587 72.414 135.732 72.5471C136.546 73.4126 137.084 74.5018 137.278 75.6757C137.296 75.9766 137.385 76.2689 137.535 76.5297C137.879 77.0033 138.615 76.9723 139.134 76.7014C139.293 76.6288 139.43 76.5171 139.534 76.3767C139.621 76.2248 139.675 76.0566 139.695 75.8825C139.789 75.451 139.841 75.0112 139.849 74.5695C139.849 73.7423 139.528 72.938 139.379 72.1191C139.173 70.9549 139.272 69.6998 138.732 68.6493C138.682 68.5236 138.598 68.4137 138.491 68.3309C138.356 68.2593 138.203 68.225 138.05 68.2316C137.564 68.213 137.074 68.2089 136.585 68.2192C136.449 68.2192 136.289 68.2399 136.219 68.3578C136.194 68.4236 136.186 68.4944 136.195 68.5641C136.205 68.6337 136.231 68.6999 136.272 68.7569C136.571 69.3503 137.061 69.8197 136.707 70.5372Z" fill="#46455B"/>
<path d="M125.114 49.6732C124.978 49.7865 124.886 49.9441 124.853 50.1187C124.821 50.2932 124.851 50.4736 124.937 50.6285C125.046 50.8084 125.24 50.9759 125.197 51.1827C125.154 51.3895 124.892 51.468 124.678 51.5032C122.786 51.8051 120.944 52.3613 119.114 52.9155L117.19 53.4965C116.626 53.6361 116.087 53.8606 115.591 54.1624C115.151 54.4634 114.803 54.8807 114.585 55.3679C114.39 55.8737 114.263 56.4037 114.21 56.9436C113.922 58.9183 113.553 60.9096 112.675 62.7003L117.338 64.2367C117.791 64.4029 118.26 64.5208 118.737 64.5882C119.192 64.6272 119.65 64.6049 120.099 64.5221C120.07 63.4778 120.052 62.4005 120.023 61.3542C120.02 61.0238 119.999 60.6938 119.959 60.3658C119.889 59.8654 119.734 59.3774 119.685 58.8728C119.891 58.695 120.214 58.7405 120.493 58.7467C121.133 58.738 121.761 58.5681 122.318 58.2525C122.883 57.9589 123.41 57.5949 123.967 57.2951C124.904 56.7968 125.972 56.468 126.689 55.676C126.324 57.0718 125.452 58.2876 125.294 59.7206C125.135 61.1536 125.706 62.5845 126.289 63.9224L128.125 68.1986C128.331 68.6701 128.597 69.2015 129.097 69.3131C129.416 69.3549 129.739 69.291 130.018 69.1312C131.708 68.3371 133.06 66.8421 134.865 66.3665C134.729 65.4691 134.024 64.7268 133.629 63.9141C133.291 63.2297 133.181 62.4563 132.957 61.7264C132.732 60.9965 132.339 60.2541 131.667 59.9067C131.343 59.7434 130.909 59.5986 130.88 59.2368C130.877 59.1203 130.902 59.0048 130.952 58.8997C131.193 58.2893 131.568 57.7415 132.05 57.2972C132.111 57.2483 132.161 57.1861 132.194 57.1152C132.21 57.0475 132.214 56.9774 132.205 56.9084C132.17 56.3253 132.481 55.7815 132.823 55.3121C133.165 54.8427 133.571 54.3981 133.767 53.8501C134.102 52.9052 133.767 51.8671 133.437 50.9221C133.329 50.53 133.141 50.1646 132.885 49.8489C132.452 49.3858 131.78 49.2514 131.15 49.181C129.12 48.9495 126.732 48.4139 125.114 49.6732Z" fill="#46455B"/>
<g opacity="0.1">
<path opacity="0.1" d="M132.829 53.8109C132.483 54.2803 132.172 54.8241 132.211 55.4072C132.22 55.4762 132.216 55.5463 132.201 55.614C132.167 55.6849 132.118 55.7471 132.056 55.796C131.575 56.2403 131.199 56.7881 130.958 57.3985C130.908 57.5036 130.883 57.6191 130.886 57.7356C130.907 57.845 130.956 57.9471 131.029 58.0318C131.101 58.1166 131.194 58.1812 131.298 58.2194C131.508 57.8752 131.764 57.562 132.06 57.2889C132.122 57.2401 132.171 57.1779 132.205 57.107C132.22 57.0392 132.224 56.9692 132.215 56.9002C132.18 56.3171 132.491 55.7732 132.833 55.3038C133.175 54.8344 133.581 54.3899 133.777 53.8419C133.946 53.3057 133.963 52.733 133.826 52.1877C133.813 52.2414 133.796 52.2952 133.777 52.3489C133.577 52.8969 133.177 53.3436 132.829 53.8109Z" fill="black"/>
<path opacity="0.1" d="M124.902 49.9565C124.971 49.9426 125.034 49.9105 125.086 49.8636C125.138 49.8167 125.176 49.7566 125.197 49.6897C125.201 49.663 125.201 49.6358 125.197 49.6091L125.108 49.6732C125.017 49.7491 124.946 49.8465 124.902 49.9565Z" fill="black"/>
<path opacity="0.1" d="M118.737 63.0953C118.26 63.0278 117.791 62.91 117.338 62.7437L113.217 61.3873C113.061 61.8355 112.879 62.274 112.671 62.7003L117.338 64.2367C117.791 64.4029 118.26 64.5208 118.737 64.5882C119.192 64.6272 119.65 64.6049 120.099 64.5221C120.085 64.032 120.074 63.5337 120.062 63.0353C119.625 63.1131 119.179 63.1333 118.737 63.0953Z" fill="black"/>
<path opacity="0.1" d="M130.025 67.6382C129.746 67.798 129.422 67.8619 129.104 67.8202C128.603 67.7085 128.333 67.1771 128.131 66.7056L126.295 62.4294C125.883 61.4886 125.481 60.5105 125.333 59.5076C125.32 59.5779 125.31 59.6482 125.3 59.7144C125.133 61.1619 125.712 62.5783 126.295 63.9162L128.131 68.1924C128.337 68.6639 128.603 69.1953 129.104 69.3069C129.422 69.3487 129.746 69.2848 130.025 69.125C131.714 68.3309 133.066 66.8359 134.871 66.3603C134.777 65.8907 134.588 65.4453 134.317 65.0514C132.78 65.6573 131.537 66.9248 130.025 67.6382Z" fill="black"/>
<path opacity="0.1" d="M126.695 54.1831C125.978 54.9688 124.91 55.3038 123.973 55.8022C123.41 56.102 122.883 56.4659 122.324 56.7596C121.767 57.0758 121.139 57.2464 120.499 57.2558C120.221 57.2558 119.907 57.2021 119.691 57.3799C119.736 57.8452 119.87 58.298 119.947 58.7591C120.13 58.7343 120.315 58.7301 120.499 58.7467C121.139 58.738 121.767 58.5681 122.324 58.2525C122.889 57.9589 123.416 57.595 123.973 57.2951C124.591 56.9663 125.265 56.7099 125.858 56.346C126.188 55.6459 126.467 54.9231 126.695 54.1831Z" fill="black"/>
</g>
<path d="M128.331 34.8739C128.354 35.1069 128.323 35.3419 128.24 35.561C128.158 35.7801 128.027 35.9772 127.857 36.1373C127.744 36.2345 127.61 36.3069 127.5 36.4082C127.402 36.5091 127.327 36.6302 127.28 36.7631C127.234 36.8961 127.216 37.0377 127.23 37.178C127.243 37.3184 127.287 37.4541 127.358 37.5758C127.429 37.6975 127.525 37.8022 127.641 37.8826C128.011 38.11 128.483 38.048 128.912 37.9736C129.483 37.8944 130.044 37.748 130.581 37.5372C131.122 37.3246 131.582 36.9461 131.896 36.4558C131.67 36.3112 131.484 36.1128 131.353 35.8783C131.222 35.6437 131.152 35.3803 131.148 35.1117C131.119 34.5762 131.265 33.9682 130.927 33.5526C130.589 33.137 129.99 33.1556 129.485 33.2921C129.235 33.3624 128.994 33.4575 128.745 33.5257C128.617 33.5588 128.201 33.5609 128.127 33.6539C127.983 33.8235 128.316 34.603 128.331 34.8739Z" fill="#FBBEBE"/>
<path opacity="0.1" d="M128.331 34.8739C128.354 35.1069 128.323 35.3419 128.24 35.561C128.158 35.7801 128.027 35.9772 127.857 36.1373C127.744 36.2345 127.61 36.3069 127.5 36.4082C127.402 36.5091 127.327 36.6302 127.28 36.7631C127.234 36.8961 127.216 37.0377 127.23 37.178C127.243 37.3184 127.287 37.4541 127.358 37.5758C127.429 37.6975 127.525 37.8022 127.641 37.8826C128.011 38.11 128.483 38.048 128.912 37.9736C129.483 37.8944 130.044 37.748 130.581 37.5372C131.122 37.3246 131.582 36.9461 131.896 36.4558C131.67 36.3112 131.484 36.1128 131.353 35.8783C131.222 35.6437 131.152 35.3803 131.148 35.1117C131.119 34.5762 131.265 33.9682 130.927 33.5526C130.589 33.137 129.99 33.1556 129.485 33.2921C129.235 33.3624 128.994 33.4575 128.745 33.5257C128.617 33.5588 128.201 33.5609 128.127 33.6539C127.983 33.8235 128.316 34.603 128.331 34.8739Z" fill="black"/>
<path d="M129.763 34.845C131.289 34.845 132.526 33.6035 132.526 32.0721C132.526 30.5406 131.289 29.2992 129.763 29.2992C128.237 29.2992 127 30.5406 127 32.0721C127 33.6035 128.237 34.845 129.763 34.845Z" fill="#FBBEBE"/>
<path d="M121.039 53.3415C120.99 53.5623 120.902 53.7724 120.779 53.9618C120.456 54.5358 120.339 55.2039 120.449 55.8539C120.507 56.176 120.643 56.479 120.846 56.7358C121.048 56.9926 121.31 57.1953 121.609 57.3261C121.734 57.3886 121.873 57.4169 122.013 57.4082C122.152 57.3995 122.286 57.3541 122.403 57.2765C122.034 56.7947 122.013 56.1371 122.036 55.5292C122.029 55.4159 122.056 55.3031 122.112 55.2046C122.128 55.1815 122.148 55.1617 122.171 55.1465C122.194 55.1313 122.22 55.121 122.247 55.1162C122.275 55.1114 122.303 55.1121 122.33 55.1184C122.357 55.1247 122.382 55.1364 122.405 55.1529C122.394 55.5358 122.468 55.9163 122.621 56.2674C122.679 56.4018 122.778 56.5507 122.926 56.5466C123.132 56.5466 123.192 56.255 123.184 56.0441C123.153 55.1839 123.109 54.2885 122.697 53.5359C122.516 53.2777 122.377 52.9922 122.285 52.6901C122.282 52.5826 122.244 52.4789 122.178 52.3944C122.133 52.3585 122.08 52.3337 122.023 52.3221C121.787 52.2538 121.222 52.045 121.026 52.2683C120.83 52.4916 121.076 53.0561 121.039 53.3415Z" fill="#FBBEBE"/>
<path d="M125.141 38.6125C124.824 38.5753 124.574 38.8668 124.401 39.1357C123.754 40.1361 123.288 41.2435 123.025 42.4069C122.891 43.0004 122.809 43.6166 122.526 44.1563C122.459 44.2685 122.405 44.3877 122.364 44.5119C122.341 44.7026 122.333 44.8948 122.339 45.0868C122.31 45.4321 122.106 45.7402 122.038 46.0814C121.997 46.2882 122.005 46.4949 121.968 46.7017C121.906 47.0574 121.71 47.3758 121.585 47.717C121.364 48.3167 121.366 48.9742 121.203 49.5925C121.184 49.6938 121.14 49.7889 121.076 49.8696C120.966 49.9916 120.789 50.0205 120.647 50.0991C120.534 50.1685 120.437 50.2614 120.362 50.3716C120.287 50.4818 120.237 50.6068 120.214 50.7381C120.171 51.0007 120.167 51.2681 120.2 51.5321L120.328 53.1719C120.458 53.116 120.534 52.9651 120.653 52.8762C120.859 52.7108 121.146 52.748 121.401 52.7935L121.774 52.8617C122.155 52.9299 122.57 53.0189 122.804 53.3208C122.998 53.0147 122.889 52.566 123.186 52.3634C123.283 52.2972 123.404 52.2765 123.505 52.2186C123.601 52.156 123.681 52.0711 123.738 51.9711C123.794 51.871 123.826 51.7588 123.831 51.6438C123.837 51.4135 123.805 51.1837 123.738 50.9635C124.216 50.7567 124.513 50.2749 124.7 49.789C124.905 49.2007 125.054 48.5942 125.145 47.9776C125.576 45.5396 125.969 43.0852 126.011 40.61C126.038 40.1965 125.993 39.7815 125.877 39.3838C125.749 38.9909 125.551 38.658 125.141 38.6125Z" fill="white"/>
<path opacity="0.1" d="M125.141 38.6125C124.824 38.5753 124.574 38.8668 124.401 39.1357C123.754 40.1361 123.288 41.2435 123.025 42.4069C122.891 43.0004 122.809 43.6166 122.526 44.1563C122.459 44.2685 122.405 44.3877 122.364 44.5119C122.341 44.7026 122.333 44.8948 122.339 45.0868C122.31 45.4321 122.106 45.7402 122.038 46.0814C121.997 46.2882 122.005 46.4949 121.968 46.7017C121.906 47.0574 121.71 47.3758 121.585 47.717C121.364 48.3167 121.366 48.9742 121.203 49.5925C121.184 49.6938 121.14 49.7889 121.076 49.8696C120.966 49.9916 120.789 50.0205 120.647 50.0991C120.534 50.1685 120.437 50.2614 120.362 50.3716C120.287 50.4818 120.237 50.6068 120.214 50.7381C120.171 51.0007 120.167 51.2681 120.2 51.5321L120.328 53.1719C120.458 53.116 120.534 52.9651 120.653 52.8762C120.859 52.7108 121.146 52.748 121.401 52.7935L121.774 52.8617C122.155 52.9299 122.57 53.0189 122.804 53.3208C122.998 53.0147 122.889 52.566 123.186 52.3634C123.283 52.2972 123.404 52.2765 123.505 52.2186C123.601 52.156 123.681 52.0711 123.738 51.9711C123.794 51.871 123.826 51.7588 123.831 51.6438C123.837 51.4135 123.805 51.1837 123.738 50.9635C124.216 50.7567 124.513 50.2749 124.7 49.789C124.905 49.2007 125.054 48.5942 125.145 47.9776C125.576 45.5396 125.969 43.0852 126.011 40.61C126.038 40.1965 125.993 39.7815 125.877 39.3838C125.749 38.9909 125.551 38.658 125.141 38.6125Z" fill="black"/>
<path d="M132.104 35.9575C131.648 36.4373 131.065 36.7772 130.424 36.9376C129.786 37.0956 129.134 37.1918 128.477 37.225C128.275 37.258 128.069 37.2402 127.876 37.1733C127.78 37.1365 127.702 37.0656 127.656 36.9743C127.61 36.883 127.599 36.7779 127.626 36.6791C127.661 36.6198 127.686 36.5547 127.698 36.4868C127.698 36.3173 127.447 36.3028 127.286 36.3524C126.223 36.6833 125.203 37.3367 124.713 38.3396C124.465 38.9209 124.311 39.5378 124.255 40.1675C124.024 41.8218 123.794 43.4905 124.103 45.1302C124.27 46.0008 124.587 46.8465 124.605 47.7315C124.618 48.2278 124.533 48.722 124.537 49.2183C124.523 49.392 124.57 49.5653 124.669 49.7084C124.746 49.7973 124.861 49.8531 124.915 49.9586C125.003 50.1322 124.884 50.3721 125.001 50.5313C125.147 50.7257 125.448 50.5851 125.648 50.4486C126.651 49.7658 127.861 49.4604 129.066 49.5863C130.509 49.7414 131.951 50.5169 133.357 50.1281C133.284 50.0228 133.222 49.9106 133.171 49.7931C132.47 47.4855 132.518 44.9028 133.567 42.7316C133.923 41.9893 134.391 41.2841 134.535 40.4694C134.591 40.0892 134.595 39.7033 134.55 39.3218C134.501 38.5781 134.278 37.8563 133.9 37.2147C133.503 36.5799 132.841 36.0319 132.104 35.9575Z" fill="white"/>
<path d="M125.421 54.0549C125.31 54.357 125.256 54.6776 125.263 54.9998C125.253 55.3073 125.268 55.615 125.308 55.92C125.332 56.1811 125.425 56.4309 125.578 56.6437C125.656 56.7485 125.762 56.8278 125.885 56.8716C126.007 56.9154 126.14 56.9217 126.266 56.8898C126.365 56.8481 126.453 56.7849 126.524 56.7048C126.596 56.6247 126.648 56.5297 126.678 56.4266C126.738 56.2192 126.782 56.0077 126.81 55.7939C126.93 55.1735 127.259 54.5739 127.266 53.9329C127.27 53.8568 127.258 53.7807 127.231 53.7095C127.111 53.4469 126.524 53.1512 126.237 53.1947C125.883 53.2505 125.553 53.7509 125.421 54.0549Z" fill="#FBBEBE"/>
<path opacity="0.1" d="M133.394 38.2982C133.34 38.8503 133.872 39.2659 134.082 39.7767C134.167 40.0161 134.215 40.2671 134.226 40.5211C134.374 42.2849 134.259 44.057 134.144 45.8208C134.127 46.4083 134.058 46.993 133.938 47.5681C133.641 48.7737 132.907 49.82 132.196 50.8332C132.089 50.9991 131.964 51.153 131.823 51.2922C131.614 51.4629 131.381 51.6022 131.131 51.7058L128.679 52.8989C128.372 53.0349 128.079 53.2034 127.807 53.4014C127.492 53.6496 127.244 53.974 127.086 54.3443C126.61 54.1003 126.116 53.8811 125.644 53.6371C125.533 53.5792 125.407 53.5048 125.388 53.3807C125.364 53.2153 125.537 53.0974 125.656 52.9672C125.879 52.7459 125.947 52.4171 126.068 52.1276C126.464 51.1764 127.455 50.5685 127.814 49.6049C127.952 49.2348 127.993 48.815 128.238 48.5048C128.378 48.3494 128.535 48.2107 128.706 48.0913C129.082 47.7695 129.427 47.413 129.736 47.0264C129.876 46.8805 129.991 46.7121 130.076 46.528C130.155 46.2443 130.182 45.9488 130.156 45.6554C130.175 44.6918 130.61 43.7944 130.876 42.868C131.125 41.9975 131.23 41.0835 131.558 40.2378C131.885 39.3921 132.516 38.5257 133.394 38.2982Z" fill="black"/>
<path d="M133.713 38.2982C133.659 38.8503 134.189 39.2659 134.399 39.7767C134.485 40.016 134.534 40.267 134.545 40.5211C134.692 42.2849 134.578 44.057 134.463 45.8208C134.443 46.4086 134.37 46.9933 134.247 47.5681C133.95 48.7737 133.216 49.82 132.505 50.8332C132.398 50.9991 132.273 51.153 132.133 51.2922C131.923 51.4629 131.69 51.6022 131.44 51.7058L128.986 52.8989C128.679 53.0358 128.387 53.2042 128.114 53.4014C127.799 53.6502 127.551 53.9744 127.393 54.3443C126.917 54.1003 126.425 53.8811 125.951 53.6371C125.84 53.5792 125.714 53.5048 125.695 53.3807C125.669 53.2153 125.842 53.0974 125.961 52.9672C126.186 52.7459 126.254 52.4171 126.373 52.1276C126.767 51.1764 127.76 50.5685 128.119 49.6049C128.257 49.2348 128.298 48.815 128.543 48.5048C128.682 48.3485 128.839 48.2096 129.011 48.0913C129.387 47.7695 129.732 47.413 130.041 47.0264C130.181 46.8805 130.296 46.7121 130.381 46.528C130.459 46.2441 130.486 45.9488 130.461 45.6554C130.48 44.6918 130.913 43.7944 131.178 42.868C131.43 41.9975 131.533 41.0835 131.861 40.2378C132.188 39.3921 132.839 38.5257 133.713 38.2982Z" fill="white"/>
<path d="M131.131 27.7855C130.28 27.6818 129.419 27.8612 128.679 28.2963C128.788 28.2963 128.897 28.2963 129.007 28.3211C129.824 28.4202 130.59 28.7744 131.196 29.3337C131.802 29.893 132.218 30.6292 132.385 31.4384C132.552 32.2476 132.461 33.0889 132.126 33.8437C131.791 34.5985 131.228 35.2286 130.517 35.6452C131.527 35.6777 132.511 35.3183 133.265 34.6418C134.018 33.9653 134.483 33.0237 134.562 32.0124C134.642 31.0011 134.33 29.9979 133.692 29.2112C133.054 28.4245 132.138 27.9146 131.135 27.7876L131.131 27.7855Z" fill="#46455B"/>
<path d="M132.341 29.9795C132.436 30.1963 132.488 30.4299 132.494 30.667C132.499 30.9041 132.458 31.1399 132.372 31.3608C132.353 31.3049 132.332 31.2491 132.308 31.1933C131.821 30.1077 130.325 29.659 128.963 30.1904C128.601 30.3194 128.271 30.5237 127.992 30.7899C127.714 31.056 127.496 31.3781 127.35 31.735C127.004 30.6846 127.707 29.4811 128.999 28.9766C130.358 28.4452 131.854 28.8939 132.341 29.9795Z" fill="#46455B"/>
<g opacity="0.1">
<path opacity="0.1" d="M132.349 31.2759C132.286 30.5143 132.005 29.7873 131.538 29.1831C131.072 28.5789 130.441 28.1236 129.722 27.8723C129.356 27.9591 129.005 28.0984 128.679 28.2859C128.788 28.2859 128.897 28.2859 129.007 28.3107C129.798 28.4067 130.541 28.7417 131.138 29.2712C131.735 29.8008 132.157 30.4999 132.349 31.2759Z" fill="black"/>
<path opacity="0.1" d="M132.986 28.3955C132.923 27.634 132.641 26.9072 132.174 26.3031C131.708 25.6991 131.077 25.2436 130.358 24.9919C129.993 25.0835 129.641 25.227 129.316 25.4179C129.425 25.4179 129.534 25.4179 129.645 25.4427C130.435 25.5379 131.176 25.8712 131.773 26.3984C132.369 26.9256 132.792 27.622 132.986 28.3955Z" fill="black"/>
<path opacity="0.1" d="M133.002 24.0966C132.963 23.6389 132.792 23.2025 132.511 22.84C132.23 22.4774 131.85 22.2043 131.418 22.0536C131.196 22.1075 130.984 22.1931 130.787 22.3079C130.853 22.3079 130.919 22.3079 130.993 22.3245C131.467 22.3824 131.912 22.5827 132.271 22.8988C132.629 23.215 132.884 23.6325 133.002 24.0966Z" fill="black"/>
<path opacity="0.1" d="M134.473 30.7383C134.549 31.6844 134.283 32.6262 133.724 33.3917C133.165 34.1571 132.35 34.695 131.428 34.907C131.162 35.1963 130.855 35.4444 130.517 35.6432C131.127 35.6655 131.733 35.5451 132.288 35.2917C132.844 35.0382 133.333 34.6585 133.716 34.1827C134.1 33.7069 134.368 33.1479 134.5 32.5501C134.631 31.9523 134.622 31.332 134.473 30.7383Z" fill="black"/>
</g>
<path d="M169.335 72.0344C169.084 71.8254 168.771 71.7038 168.445 71.6878C168.118 71.6718 167.795 71.7622 167.524 71.9454C167.112 72.2515 166.933 72.7602 166.764 73.2399C166.517 73.9491 166.117 74.6377 166.051 75.3883C165.868 77.4561 164.423 79.1952 163.99 81.2216C163.832 81.9453 163.801 82.7063 163.502 83.3824C163.359 83.6793 163.194 83.9648 163.008 84.2364C162.283 85.3796 161.662 86.5859 161.153 87.8406C160.795 87.9502 160.5 88.2955 160.213 88.5706C159.846 88.9231 159.407 89.1913 158.926 89.3563C158.73 89.4003 158.547 89.4903 158.392 89.6189C158.186 89.8381 158.186 90.1917 158.015 90.446C157.893 90.6126 157.732 90.7457 157.545 90.8327C157.532 90.774 157.523 90.7146 157.516 90.6549C157.473 90.3385 157.438 90.0222 157.405 89.7058C157.885 89.0032 158.099 88.1521 158.01 87.3051C157.921 86.4581 157.534 85.6707 156.919 85.0842C156.881 84.5906 156.895 84.0943 156.962 83.6037C156.992 83.4857 156.989 83.3616 156.953 83.2453C156.916 83.1291 156.848 83.0254 156.756 82.9461C156.655 82.882 156.531 82.8676 156.424 82.8138C156.269 82.7092 156.137 82.5733 156.037 82.4147C155.747 82.0855 155.351 81.8696 154.918 81.8052C154.485 81.7409 154.044 81.8323 153.671 82.0632C153.094 82.4499 152.789 83.1364 152.297 83.6306C152.041 83.8849 151.739 84.0855 151.485 84.3398C150.978 84.8852 150.649 85.5726 150.541 86.3105C150.436 87.0443 150.406 87.7871 150.453 88.5271C150.448 88.7514 150.48 88.9751 150.548 89.1888C150.621 89.3642 150.723 89.5262 150.848 89.6686C151.452 90.4589 152.25 91.0781 153.164 91.4655C153.171 91.5093 153.174 91.5535 153.175 91.5978C153.175 91.6661 153.175 91.7343 153.158 91.8046L153.057 91.788C152.686 91.7426 152.295 91.788 151.951 91.6454C151.363 91.391 151.127 90.6425 150.548 90.3489C150.499 90.3234 150.449 90.3027 150.397 90.2868C150.26 89.3231 149.977 88.386 149.558 87.5077C149.352 87.0941 149.12 86.664 149.095 86.1967C149.108 85.7622 149.205 85.3345 149.381 84.9374C149.847 83.5171 150.215 82.0662 150.482 80.595C150.668 79.6728 150.857 78.7506 151.046 77.8283C151.302 77.5949 151.528 77.3302 151.718 77.0405C152.115 76.4642 152.347 75.7899 152.39 75.0906C152.408 74.7418 152.357 74.3929 152.241 74.0639C152.124 73.7349 151.944 73.4324 151.71 73.1737C151.606 73.0477 151.477 72.9455 151.331 72.8741C151.185 72.8027 151.025 72.7639 150.863 72.7602C150.723 72.7767 150.588 72.822 150.466 72.8931C150.344 72.9643 150.238 73.0598 150.154 73.1737C149.902 73.5273 149.72 73.926 149.618 74.3482C149.412 75.0347 149.206 75.7502 149.299 76.4615C149.383 77.0508 149.67 77.6898 149.377 78.2067C148.413 79.9003 147.747 81.8047 147.032 83.6202C146.848 84.0558 146.698 84.5052 146.583 84.9643C146.44 85.7042 146.415 86.4622 146.509 87.2099C146.679 88.6122 146.948 90.0004 147.315 91.3642C147.465 91.9845 147.642 92.64 147.997 93.1507C147.871 93.8436 147.84 94.5505 147.906 95.2516C147.914 95.4137 147.956 95.5721 148.03 95.7169C148.148 95.8834 148.291 96.0306 148.454 96.1532C148.675 96.3595 148.85 96.611 148.966 96.8906C149.082 97.1702 149.137 97.4715 149.128 97.7743C149.138 98.3406 149.247 98.9006 149.451 99.4286C149.944 100.903 150.438 102.377 150.869 103.872C150.962 104.149 151.014 104.438 151.021 104.73C151.021 105.144 150.826 105.558 150.916 105.971C150.985 106.158 151.042 106.349 151.085 106.544C151.089 106.694 151.069 106.844 151.028 106.988C150.76 108.157 149.985 110.851 150.119 112.044L150.385 111.951C150.271 113.531 149.785 115.078 149.608 116.657C149.491 117.808 149.504 118.967 149.645 120.115C149.722 120.628 149.766 121.145 149.777 121.664C149.777 122.129 149.703 122.588 149.684 123.051C149.675 123.673 149.711 124.295 149.793 124.912C149.874 125.88 150.028 126.84 150.253 127.784C150.681 129.389 150.393 131.06 150.44 132.722C150.496 133.882 150.484 135.044 150.405 136.202C150.362 136.692 150.294 137.18 150.28 137.673C150.236 139.132 150.667 140.586 150.515 142.038C150.442 142.718 150.269 143.485 150.696 144.021C150.832 144.188 151.015 144.308 151.159 144.467C151.238 144.541 151.296 144.635 151.327 144.738C151.359 144.841 151.363 144.951 151.339 145.057C151.283 145.22 151.133 145.34 151.098 145.512C151.059 145.78 151.353 145.966 151.609 146.053L151.681 146.074C151.675 146.164 151.689 146.254 151.721 146.338C151.752 146.422 151.801 146.498 151.864 146.562C152.024 146.684 152.214 146.76 152.414 146.781L155.711 147.422C156.447 147.565 157.246 147.699 157.937 147.449C157.963 147.549 158.017 147.64 158.091 147.712C158.25 147.834 158.44 147.91 158.639 147.931L161.936 148.572C162.777 148.735 163.7 148.886 164.45 148.468C164.666 148.353 164.849 148.182 164.98 147.974C165.085 147.777 165.146 147.559 165.158 147.336C165.171 147.113 165.134 146.89 165.052 146.682C164.988 146.469 164.86 146.282 164.685 146.146C164.451 146.017 164.184 145.96 163.918 145.981C163.692 145.997 163.466 145.963 163.255 145.88C163.19 145.846 163.134 145.798 163.09 145.739C163.255 145.532 163.414 145.325 163.564 145.119C163.422 145.086 163.358 144.889 163.323 144.744C162.898 142.598 163.494 140.402 163.58 138.21C163.624 137.113 163.538 136.014 163.325 134.937C163.245 134.523 163.148 134.13 163.09 133.721C162.787 131.585 163.597 129.416 163.339 127.274C163.218 126.273 163.646 125.226 163.799 124.23C163.933 123.345 163.846 122.443 163.76 121.542L163.078 114.511C162.985 113.562 162.888 112.59 162.484 111.726C162.283 111.243 162.187 110.721 162.204 110.198C163.028 109.724 163.786 109.073 164.718 109.071C164.897 108.388 164.382 106.236 164.081 105.599C162.908 103.088 162.444 100.302 162.74 97.5448C162.849 96.5543 162.455 95.5556 162.587 94.5672C162.607 94.3357 162.671 94.1102 162.777 93.9034C162.83 93.8009 162.908 93.7136 163.004 93.6496C163.1 93.5857 163.21 93.547 163.325 93.5374C163.267 92.944 163.191 92.3464 163.09 91.7529C163.429 91.4057 163.708 91.0038 163.914 90.5639C164.343 89.6644 164.532 88.6719 164.782 87.7083C165.235 86.0106 165.927 84.3895 166.475 82.7228C167.024 81.0562 166.916 79.2944 167.31 77.5823C167.532 76.639 168.108 75.8178 168.917 75.2891C169.23 75.0823 169.587 74.9231 169.803 74.617C169.966 74.3655 170.052 74.0714 170.05 73.7713C170.069 73.4465 170.014 73.1216 169.891 72.8209C169.767 72.5202 169.577 72.2514 169.335 72.0344ZM156.741 144.383C156.803 144.298 156.863 144.213 156.919 144.124C156.7 144.112 156.424 143.983 156.397 143.764C156.391 143.545 156.415 143.326 156.47 143.113C156.532 142.733 156.508 142.344 156.401 141.974C156.325 141.717 156.212 141.471 156.13 141.215C156.049 140.928 155.985 140.638 155.938 140.344C155.736 139.294 155.422 138.268 155 137.286C154.588 136.333 154.908 135.292 154.912 134.252C154.912 133.762 154.838 133.262 154.961 132.786C155.033 132.505 155.167 132.245 155.243 131.959C155.412 131.304 155.2 130.615 154.992 129.972C155.806 128.041 155.915 125.836 156.082 123.736C156.176 122.561 156.269 121.389 156.362 120.22C156.404 119.697 156.451 119.153 156.725 118.707C157.212 120.2 157.502 121.751 157.588 123.32C157.597 123.773 157.649 124.225 157.745 124.668C157.875 125.158 158.128 125.603 158.297 126.078C158.672 127.125 158.633 128.268 158.802 129.366C158.87 129.811 158.973 130.249 159.039 130.694C159.323 132.656 158.864 134.643 158.406 136.572C158.126 137.755 158.172 139.064 158.108 140.278C158.048 141.442 157.986 142.606 158.015 143.773C158.015 144.128 158.038 144.492 158.033 144.854C157.921 144.841 157.808 144.834 157.696 144.835C157.47 144.852 157.243 144.817 157.032 144.734C156.902 144.65 156.8 144.527 156.741 144.383Z" fill="url(#paint1_linear)"/>
<path d="M163.929 145.995C164.194 145.975 164.461 146.032 164.695 146.159C164.869 146.294 164.997 146.481 165.062 146.692C165.144 146.899 165.18 147.121 165.167 147.343C165.154 147.564 165.093 147.781 164.988 147.976C164.857 148.183 164.674 148.352 164.458 148.466C163.708 148.88 162.785 148.733 161.944 148.572L158.647 147.937C158.449 147.92 158.259 147.848 158.097 147.73C157.997 147.62 157.934 147.481 157.917 147.332C157.899 147.184 157.929 147.034 158 146.903C158.144 146.642 158.358 146.427 158.619 146.283C159.566 145.691 160.679 145.456 161.767 145.33C162.179 145.28 162.565 145.148 162.874 145.435C163.038 145.586 163.03 145.774 163.261 145.896C163.474 145.978 163.702 146.012 163.929 145.995Z" fill="#3F3D56"/>
<path d="M157.7 144.858C157.965 144.838 158.23 144.894 158.464 145.021C158.64 145.156 158.768 145.343 158.831 145.555C158.914 145.761 158.951 145.983 158.938 146.205C158.926 146.427 158.864 146.644 158.759 146.839C158.627 147.045 158.445 147.214 158.229 147.329C157.479 147.743 156.556 147.596 155.713 147.435L152.416 146.798C152.218 146.78 152.027 146.709 151.866 146.591C151.766 146.481 151.702 146.342 151.685 146.193C151.667 146.045 151.696 145.895 151.767 145.764C151.916 145.503 152.133 145.288 152.396 145.143C153.342 144.554 154.456 144.327 155.544 144.192C155.956 144.141 156.342 144.01 156.651 144.296C156.814 144.447 156.807 144.635 157.036 144.757C157.247 144.84 157.474 144.874 157.7 144.858Z" fill="#3F3D56"/>
<path d="M156.888 109.706C154.982 109.713 153.079 109.859 151.195 110.142C151.07 110.153 150.948 110.186 150.834 110.237C150.434 110.444 150.422 111.006 150.432 111.457C150.459 113.291 149.835 115.067 149.628 116.887C149.51 118.029 149.522 119.182 149.664 120.322C149.738 120.832 149.782 121.346 149.795 121.862C149.795 122.321 149.719 122.778 149.701 123.239C149.691 123.855 149.727 124.47 149.808 125.08C149.888 126.041 150.042 126.995 150.267 127.933C150.694 129.527 150.405 131.188 150.451 132.838C150.506 133.99 150.493 135.145 150.411 136.295C150.368 136.783 150.3 137.267 150.286 137.757C150.243 139.205 150.671 140.652 150.519 142.1C150.447 142.774 150.271 143.547 150.698 144.068C150.834 144.234 151.017 144.354 151.159 144.513C151.237 144.586 151.295 144.678 151.327 144.78C151.358 144.883 151.363 144.991 151.341 145.096C151.283 145.259 151.124 145.379 151.1 145.549C151.059 145.815 151.353 146.002 151.609 146.086C152.582 146.386 153.626 146.361 154.584 146.016C155.542 145.67 156.362 145.022 156.923 144.17C156.704 144.157 156.428 144.029 156.401 143.812C156.395 143.594 156.419 143.376 156.474 143.165C156.537 142.787 156.514 142.4 156.406 142.033C156.331 141.777 156.216 141.533 156.136 141.279C156.055 140.995 155.991 140.706 155.944 140.414C155.743 139.37 155.43 138.351 155.009 137.375C154.596 136.428 154.918 135.394 154.922 134.364C154.922 133.876 154.85 133.378 154.971 132.906C155.044 132.625 155.178 132.367 155.256 132.079C155.425 131.428 155.213 130.745 155.004 130.106C155.829 128.187 155.932 125.987 156.099 123.903L156.381 120.388C156.422 119.869 156.472 119.327 156.744 118.884C157.23 120.367 157.52 121.908 157.607 123.467C157.614 123.918 157.666 124.368 157.761 124.809C157.891 125.293 158.143 125.735 158.314 126.209C158.687 127.243 158.647 128.382 158.816 129.474C158.884 129.916 158.985 130.35 159.051 130.793C159.336 132.743 158.874 134.722 158.415 136.634C158.134 137.809 158.178 139.116 158.114 140.317C158.052 141.473 157.99 142.629 158.019 143.787C158.044 144.852 158.126 145.995 157.555 146.889C158.194 147.215 158.854 147.548 159.566 147.61C160.396 147.655 161.215 147.406 161.88 146.907C162.539 146.41 163.112 145.807 163.576 145.123C163.432 145.09 163.37 144.893 163.335 144.751C162.911 142.619 163.508 140.429 163.597 138.258C163.641 137.168 163.555 136.077 163.343 135.007C163.263 134.594 163.164 134.203 163.106 133.797C162.808 131.676 163.617 129.519 163.362 127.387C163.242 126.391 163.671 125.353 163.824 124.36C163.957 123.481 163.873 122.586 163.786 121.701L163.109 114.722C163.018 113.777 162.921 112.811 162.517 111.953C162.035 110.919 162.334 109.646 162.282 108.506C160.58 109.258 158.747 109.666 156.888 109.706Z" fill="#46455B"/>
<path d="M160.869 89.0379C161.43 87.5008 162.158 86.0306 163.041 84.6541C163.227 84.3839 163.392 84.0997 163.535 83.8043C163.836 83.1343 163.867 82.3775 164.025 81.6579C164.469 79.6438 165.915 77.9152 166.1 75.8681C166.166 75.1216 166.566 74.4371 166.815 73.732C166.982 73.2544 167.172 72.7498 167.576 72.4458C167.847 72.2644 168.169 72.1749 168.495 72.1905C168.82 72.2061 169.132 72.3261 169.385 72.5327C169.631 72.7469 169.826 73.0152 169.953 73.3167C170.079 73.6182 170.135 73.945 170.116 74.2717C170.117 74.5697 170.031 74.8615 169.869 75.1112C169.651 75.4152 169.296 75.5786 168.983 75.7791C168.175 76.3017 167.599 77.1162 167.374 78.0537C166.978 79.7555 167.085 81.5028 166.535 83.1591C165.985 84.8154 165.299 86.4283 164.839 88.1218C164.582 89.0792 164.398 90.0656 163.968 90.9588C163.537 91.8521 162.806 92.6586 161.843 92.8881C161.783 92.2732 161.624 91.6721 161.374 91.1077C161.085 90.4543 160.626 89.7016 160.869 89.0379Z" fill="#A0616A"/>
<path d="M150.502 91.3973C150.423 90.189 150.112 89.0075 149.587 87.9171C149.381 87.5036 149.151 87.09 149.126 86.6165C149.138 86.1846 149.236 85.7595 149.412 85.3655C149.879 83.9515 150.247 82.5068 150.515 81.0417L151.083 78.2915C151.338 78.0597 151.563 77.7972 151.753 77.5099C152.151 76.9385 152.384 76.2681 152.427 75.5724C152.446 75.2253 152.396 74.8779 152.279 74.5506C152.163 74.2232 151.983 73.9224 151.749 73.6659C151.644 73.5422 151.515 73.4424 151.369 73.3732C151.223 73.304 151.063 73.267 150.902 73.2647C150.762 73.2813 150.627 73.3265 150.505 73.3977C150.383 73.4688 150.277 73.5643 150.193 73.6783C149.946 74.0268 149.767 74.42 149.668 74.8362C149.462 75.5186 149.256 76.2279 149.346 76.9351C149.429 77.5202 149.717 78.1551 149.423 78.6679C148.456 80.3531 147.791 82.2431 147.073 84.0442C146.89 84.4771 146.741 84.9237 146.626 85.3799C146.482 86.1154 146.455 86.8693 146.548 87.6132C146.717 89.0093 146.985 90.3914 147.352 91.7488C147.558 92.6007 147.815 93.5271 148.528 94.0378C149.115 93.0949 149.709 92.1706 150.502 91.3973Z" fill="#A0616A"/>
<path d="M154.522 91.635C156.476 91.635 158.06 90.0455 158.06 88.0846C158.06 86.1238 156.476 84.5342 154.522 84.5342C152.568 84.5342 150.984 86.1238 150.984 88.0846C150.984 90.0455 152.568 91.635 154.522 91.635Z" fill="#A0616A"/>
<path d="M153.202 91.9783C153.181 92.6255 152.901 93.2314 152.625 93.8187C152.458 94.1723 152.239 94.5672 151.858 94.6458C152.931 95.0764 154.044 95.3972 155.182 95.6032C155.571 95.6908 155.972 95.7138 156.369 95.6714C156.702 95.6115 157.022 95.4925 157.314 95.3199C157.955 94.9555 158.504 94.4496 158.921 93.8405C159.337 93.2315 159.61 92.5353 159.719 91.8046C159.282 91.8618 158.841 91.8736 158.402 91.8398C158.154 91.8466 157.913 91.757 157.728 91.5896C157.612 91.4276 157.546 91.2348 157.539 91.0354C157.461 90.4481 157.398 89.8595 157.351 89.2695C156.481 89.3033 155.625 89.5004 154.827 89.8505C154.498 89.9953 154.176 90.1628 153.836 90.2869C153.63 90.3613 153.035 90.3758 152.89 90.5102C152.668 90.7232 153.214 91.5317 153.202 91.9783Z" fill="#A0616A"/>
<path d="M154.976 93.9634C154.889 93.5036 154.66 93.0828 154.322 92.7604C153.985 92.438 153.554 92.2302 153.092 92.1665C152.721 92.123 152.33 92.1665 151.986 92.0279C151.399 91.7736 151.151 91.0313 150.583 90.7397C150.014 90.4481 149.276 90.719 148.856 91.207C148.435 91.695 148.258 92.3588 148.131 92.9791C147.932 93.8394 147.868 94.7252 147.939 95.6052C147.949 95.7666 147.991 95.9243 148.065 96.0684C148.183 96.2338 148.325 96.3802 148.487 96.5026C148.708 96.7065 148.882 96.9557 148.999 97.2333C149.115 97.5109 149.17 97.8104 149.161 98.1114C149.168 98.6777 149.277 99.2381 149.482 99.7656C149.975 101.23 150.469 102.696 150.898 104.18C150.991 104.455 151.043 104.742 151.05 105.032C151.04 105.446 150.844 105.859 150.945 106.263C151.012 106.449 151.068 106.638 151.112 106.831C151.116 106.981 151.096 107.13 151.054 107.274C150.784 108.436 150.01 111.112 150.144 112.297C151.901 111.647 154.553 111.263 156.416 111.056C156.928 110.997 157.444 110.966 157.959 110.965C159.196 110.965 160.492 111.199 161.646 110.744C162.715 110.33 163.603 109.333 164.753 109.329C164.932 108.653 164.417 106.515 164.118 105.882C162.946 103.39 162.484 100.621 162.783 97.8819C162.89 96.8976 162.499 95.9051 162.633 94.9228C162.652 94.6928 162.715 94.4687 162.82 94.2632C162.874 94.1611 162.953 94.0741 163.049 94.0102C163.145 93.9463 163.255 93.9074 163.37 93.8972C163.233 92.3573 162.933 90.8364 162.474 89.3605C162.307 88.8352 162.006 88.2273 161.458 88.1922C160.964 88.1591 160.599 88.6057 160.242 88.9552C159.874 89.3055 159.435 89.5715 158.955 89.7347C158.758 89.7783 158.574 89.8683 158.419 89.9973C158.213 90.2145 158.213 90.5681 158.042 90.8245C157.745 91.2835 156.987 91.3269 156.805 91.8398C156.767 91.9906 156.74 92.144 156.725 92.2988C156.641 92.6007 156.472 92.872 156.239 93.0804C155.897 93.4754 155.463 93.7788 154.976 93.9634Z" fill="#2F2E41"/>
<path d="M156.993 84.0338C157.023 83.9168 157.02 83.7935 156.984 83.6783C156.947 83.563 156.879 83.4605 156.787 83.3825C156.678 83.3313 156.567 83.2864 156.453 83.2481C156.298 83.1424 156.167 83.0058 156.068 82.8469C155.778 82.5188 155.382 82.3041 154.949 82.2405C154.517 82.1769 154.076 82.2687 153.704 82.4995C153.125 82.8841 152.822 83.5665 152.328 84.0566C152.074 84.3109 151.772 84.5094 151.516 84.7638C151.01 85.3042 150.68 85.9866 150.57 86.7199C150.464 87.4496 150.435 88.1883 150.482 88.9242C150.475 89.1472 150.508 89.3696 150.576 89.5817C150.65 89.7556 150.752 89.9162 150.877 90.0573C151.505 90.8807 152.347 91.5146 153.311 91.8894C154.279 92.2327 155.41 92.1913 156.276 91.6351C156.363 91.5869 156.434 91.5153 156.482 91.4283C156.523 91.2992 156.523 91.1604 156.482 91.0313C156.379 90.5162 156.428 89.9821 156.624 89.4949C156.796 89.1557 156.949 88.807 157.082 88.4507C157.166 88.0424 157.177 87.6222 157.114 87.21C157.014 86.1554 156.83 85.0925 156.993 84.0338Z" fill="#46455B"/>
<path d="M216.858 139.091C216.858 159.434 229.575 175.898 245.293 175.898L216.858 139.091Z" fill="#46455B"/>
<path d="M245.293 175.898C245.293 155.323 259.484 138.677 277.025 138.677L245.293 175.898Z" fill="white"/>
<path d="M227.16 140.923C227.16 160.249 235.268 175.888 245.293 175.888L227.16 140.923Z" fill="white"/>
<path d="M245.293 175.898C245.293 149.61 261.697 128.338 281.971 128.338L245.293 175.898Z" fill="#46455B"/>
<path opacity="0.1" d="M244.059 182.918C247.963 182.918 251.128 182.381 251.128 181.719C251.128 181.056 247.963 180.519 244.059 180.519C240.154 180.519 236.989 181.056 236.989 181.719C236.989 182.381 240.154 182.918 244.059 182.918Z" fill="white"/>
<path d="M239.309 176.146C239.309 176.146 243.342 176.022 244.558 175.153C245.773 174.285 250.762 173.247 251.063 174.641C251.363 176.034 257.123 181.568 252.571 181.605C248.019 181.642 241.992 180.894 240.778 180.158C239.565 179.421 239.309 176.146 239.309 176.146Z" fill="#A8A8A8"/>
<path opacity="0.2" d="M252.645 181.119C248.093 181.156 242.066 180.408 240.853 179.672C239.929 179.105 239.561 177.081 239.439 176.144H239.303C239.303 176.144 239.558 179.407 240.772 180.149C241.986 180.892 248.011 181.64 252.565 181.597C253.877 181.586 254.333 181.117 254.308 180.422C254.131 180.861 253.63 181.111 252.645 181.119Z" fill="black"/>
<path opacity="0.1" d="M217.41 28.3914C217.588 28.1366 217.686 27.8342 217.692 27.5229C217.692 25.6371 213.864 24.1111 209.141 24.1111C204.418 24.1111 200.59 25.6371 200.59 27.5229C200.594 27.8736 200.711 28.2134 200.926 28.4907C195.667 29.08 192.125 30.1842 192.125 31.4517C192.125 33.3355 199.955 34.8636 209.64 34.8636C219.324 34.8636 227.154 33.3355 227.154 31.4517C227.16 30.118 223.179 28.9497 217.41 28.3914Z" fill="white"/>
<path opacity="0.1" d="M112.529 32.1134C112.707 31.8587 112.805 31.5562 112.811 31.245C112.811 29.3591 108.982 27.8331 104.26 27.8331C99.5369 27.8331 95.7085 29.3591 95.7085 31.245C95.717 31.5976 95.8408 31.9376 96.0608 32.2127C90.8023 32.802 87.2603 33.9062 87.2603 35.1738C87.2603 37.0575 95.1006 38.5857 104.775 38.5857C114.449 38.5857 122.289 37.0575 122.289 35.1738C122.279 33.8401 118.298 32.6717 112.529 32.1134Z" fill="white"/>
<path opacity="0.1" d="M172.643 29.2475C173.123 28.9683 173.772 29.2351 174.102 29.6859C174.431 30.1366 174.514 30.7197 174.606 31.2615C174.79 32.4857 174.924 33.8897 174.102 34.8099C175.445 30.7218 179.309 27.5912 183.58 27.1342" stroke="white" stroke-width="3" stroke-miterlimit="10"/>
<path opacity="0.1" d="M103.918 50.1281C104.227 49.9482 104.643 50.1281 104.855 50.4093C105.044 50.7155 105.156 51.0633 105.181 51.4225C105.298 52.2104 105.387 53.1119 104.857 53.6971C105.309 52.3844 106.12 51.2255 107.196 50.3528C108.273 49.4801 109.572 48.9286 110.946 48.7613" stroke="white" stroke-width="3" stroke-miterlimit="10"/>
<path opacity="0.1" d="M196.642 56.3315C196.951 56.1516 197.367 56.3315 197.579 56.6127C197.768 56.9189 197.88 57.2667 197.905 57.626C198.022 58.4138 198.111 59.3153 197.581 59.9005C198.033 58.5878 198.844 57.4289 199.92 56.5562C200.997 55.6835 202.296 55.132 203.67 54.9647" stroke="white" stroke-width="3" stroke-miterlimit="10"/>
<path opacity="0.1" d="M189.04 125.857V120.832L191.348 123.148L191.925 122.549L188.628 119.24L185.331 122.549L185.908 123.126L188.216 120.832V125.857H189.04Z" fill="white"/>
<path opacity="0.1" d="M139.176 142.4V137.375L141.483 139.691L142.06 139.091L138.763 135.783L135.467 139.091L136.044 139.668L138.351 137.375V142.4H139.176Z" fill="white"/>
<path opacity="0.1" d="M175.853 157.081V152.056L178.161 154.372L178.738 153.772L175.441 150.464L172.144 153.772L172.721 154.349L175.029 152.056V157.081H175.853Z" fill="white"/>
</g>
<defs>
<linearGradient id="paint0_linear" x1="126.237" y1="76.8916" x2="126.237" y2="20.8232" gradientUnits="userSpaceOnUse">
<stop stop-color="#808080" stop-opacity="0.25"/>
<stop offset="0.54" stop-color="#808080" stop-opacity="0.12"/>
<stop offset="1" stop-color="#808080" stop-opacity="0.1"/>
</linearGradient>
<linearGradient id="paint1_linear" x1="16022.8" y1="35003.8" x2="19063.1" y2="34690.7" gradientUnits="userSpaceOnUse">
<stop stop-color="#808080" stop-opacity="0.25"/>
<stop offset="0.54" stop-color="#808080" stop-opacity="0.12"/>
<stop offset="1" stop-color="#808080" stop-opacity="0.1"/>
</linearGradient>
<clipPath id="clip0">
<rect x="49.3669" y="20.8232" width="234.71" height="162.095" fill="white"/>
</clipPath>
</defs>
</svg>
